<svg width="40" height="40" viewBox="0 0 40 40" fill="none" xmlns="http://www.w3.org/2000/svg">
  <path d="M14 9.5l4 3.5-3 4c1.4 2.6 3.5 4.7 6.1 6.1l4-3 3.5 4c0.4 0.5 0.4 1.2-0.1 1.7-1.8 1.8-4.4 2.8-7 2.6-7.4-0.6-13.3-6.5-13.9-13.9-0.2-2.6 0.8-5.2 2.6-7 0.5-0.5 1.2-0.6 1.7-0.1z" stroke="#0EA5E9" stroke-width="2.5" stroke-linecap="round" stroke-linejoin="round" />
  <path d="M24.5 6A9.5 9.5 0 0134 15.5" stroke="#0EA5E9" stroke-width="2.5" stroke-linecap="round" />
  <path d="M24.5 11A4.5 4.5 0 0129 15.5" stroke="#0EA5E9" stroke-width="2.5" stroke-linecap="round" />
</svg>
